<svg id="ehmus4rf1mi1" xmlns="http://www.w3.org/2000/svg" xmlns:xlink="http://www.w3.org/1999/xlink" viewBox="0 0 47.624944 6.837324" shape-rendering="geometricPrecision" text-rendering="geometricPrecision"><style><![CDATA[#ehmus4rf1mi5 {animation: ehmus4rf1mi5_f_p 3000ms linear 1 normal forwards}@keyframes ehmus4rf1mi5_f_p { 0% {fill: rgb(34,34,34)} 80.666667% {fill: rgb(34,34,34);animation-timing-function: cubic-bezier(0.420000,0,0.580000,1)} 84% {fill: rgb(0,255,102)} 100% {fill: rgb(0,255,102)} }#ehmus4rf1mi6 {animation: ehmus4rf1mi6_f_p 3000ms linear 1 normal forwards}@keyframes ehmus4rf1mi6_f_p { 0% {fill: rgb(34,34,34)} 77% {fill: rgb(34,34,34);animation-timing-function: cubic-bezier(0.420000,0,0.580000,1)} 80.333333% {fill: rgb(0,255,102)} 100% {fill: rgb(0,255,102)} }#ehmus4rf1mi7 {animation: ehmus4rf1mi7_f_p 3000ms linear 1 normal forwards}@keyframes ehmus4rf1mi7_f_p { 0% {fill: rgb(34,34,34)} 73.333333% {fill: rgb(34,34,34);animation-timing-function: cubic-bezier(0.420000,0,0.580000,1)} 76.666667% {fill: rgb(0,255,102)} 100% {fill: rgb(0,255,102)} }#ehmus4rf1mi8 {animation: ehmus4rf1mi8_f_p 3000ms linear 1 normal forwards}@keyframes ehmus4rf1mi8_f_p { 0% {fill: rgb(34,34,34)} 69.666667% {fill: rgb(34,34,34);animation-timing-function: cubic-bezier(0.420000,0,0.580000,1)} 73% {fill: rgb(0,255,102)} 100% {fill: rgb(0,255,102)} }#ehmus4rf1mi17_to {animation: ehmus4rf1mi17_to__to 3000ms linear 1 normal forwards}@keyframes ehmus4rf1mi17_to__to { 0% {transform: translate(-3.302036px,3.376202px)} 65% {transform: translate(-3.302036px,3.376202px);animation-timing-function: cubic-bezier(0.420000,0,0.580000,1)} 83% {transform: translate(50.158079px,3.418662px)} 100% {transform: translate(50.158079px,3.418662px)} }]]></style><g id="ehmus4rf1mi2" transform="matrix(1 0 0 1 11.71860000000000 29.43850000000000)"><g id="ehmus4rf1mi3" transform="matrix(7.49809000000000 0 0 7.49809000000000 76.14879999999999 146.86400000000000)"><g id="ehmus4rf1mi4"><path id="ehmus4rf1mi5" d="M-5.420597,-22.731956Q-5.398175,-22.731956,-5.383227,-22.714516Q-5.367034,-22.697076,-5.367034,-22.669676Q-5.367034,-22.642276,-5.388210,-22.624836Q-5.408141,-22.607396,-5.440528,-22.607396L-5.462950,-22.607396Q-5.523987,-22.607396,-5.575060,-22.638536Q-5.624886,-22.670926,-5.653537,-22.725736Q-5.682187,-22.780546,-5.682187,-22.849057L-5.682187,-23.156735L-5.739486,-23.156735Q-5.765645,-23.156735,-5.781840,-23.171685Q-5.798033,-23.186635,-5.798033,-23.209055Q-5.798033,-23.233965,-5.781840,-23.248915Q-5.765646,-23.263865,-5.739486,-23.263865L-5.682187,-23.263865L-5.682187,-23.443240Q-5.682187,-23.470640,-5.664747,-23.488080Q-5.647308,-23.505520,-5.619903,-23.505520Q-5.592498,-23.505520,-5.575059,-23.488080Q-5.557620,-23.470640,-5.557620,-23.443240L-5.557620,-23.263865L-5.451739,-23.263865Q-5.425580,-23.263865,-5.409387,-23.248915Q-5.393193,-23.233965,-5.393193,-23.209055Q-5.393193,-23.186635,-5.409387,-23.171685Q-5.425580,-23.156735,-5.451739,-23.156735L-5.557620,-23.156735L-5.557620,-22.849057Q-5.557620,-22.799227,-5.530215,-22.765597Q-5.502811,-22.731967,-5.462949,-22.731967Z" fill="rgb(34,34,34)" stroke="none" stroke-width="0.031141"/><path id="ehmus4rf1mi6" d="M127.892580,33.746094C127.429380,33.746094,126.966220,33.924348,126.611330,34.279297C125.901540,34.988911,125.901540,36.131899,126.611330,36.841797L133.201170,43.431641L126.611330,50.021484C125.901490,50.731099,125.901490,51.874370,126.611330,52.583984C127.321030,53.293939,128.463930,53.293882,129.173830,52.583984L135.765620,45.994141L138.328120,43.431641L135.765620,40.869141L129.173830,34.279297C128.818940,33.924348,128.355780,33.746094,127.892580,33.746094Z" transform="matrix(0.03528700000000 0 0 0.03528700000000 -11.09175237080377 -24.47541489432642)" paint-order="stroke fill markers" fill="rgb(34,34,34)" stroke="none" stroke-width="21.725200" stroke-linecap="round"/><path id="ehmus4rf1mi7" d="M-6.739650,-22.958666Q-6.739650,-22.934996,-6.755843,-22.918806Q-6.772036,-22.903856,-6.796950,-22.903856L-7.270301,-22.903856Q-7.256599,-22.816656,-7.191824,-22.763096Q-7.125804,-22.709536,-7.031133,-22.709536Q-6.993763,-22.709536,-6.953902,-22.723236Q-6.912795,-22.736936,-6.886636,-22.756866Q-6.869197,-22.770566,-6.845529,-22.770566Q-6.821861,-22.770566,-6.808159,-22.758106Q-6.785737,-22.739426,-6.785737,-22.715756Q-6.785737,-22.693336,-6.805668,-22.678386Q-6.848020,-22.644756,-6.911550,-22.623576Q-6.973833,-22.602396,-7.031133,-22.602396Q-7.133277,-22.602396,-7.214245,-22.645996Q-7.295213,-22.690836,-7.341303,-22.769316Q-7.386147,-22.847796,-7.386147,-22.947446Q-7.386147,-23.047096,-7.343794,-23.125575Q-7.300196,-23.205295,-7.224210,-23.248896Q-7.146979,-23.293736,-7.049818,-23.293736Q-6.953902,-23.293736,-6.884145,-23.251386Q-6.814388,-23.209036,-6.777018,-23.133048Q-6.739648,-23.057068,-6.739648,-22.958656ZM-7.049819,-23.186622Q-7.140752,-23.186622,-7.198053,-23.136792Q-7.254108,-23.086962,-7.269056,-23.003507L-6.854251,-23.003507Q-6.865462,-23.086967,-6.916534,-23.136792Q-6.967606,-23.186622,-7.049819,-23.186622Z" fill="rgb(34,34,34)" stroke="none" stroke-width="0.031141"/><path id="ehmus4rf1mi8" d="M-7.815379,-23.294995Q-7.729428,-23.294995,-7.660917,-23.257625Q-7.592406,-23.220255,-7.553790,-23.148006Q-7.515175,-23.077006,-7.515175,-22.976105L-7.515175,-22.669673Q-7.515175,-22.642273,-7.533860,-22.623583Q-7.551299,-22.606143,-7.578704,-22.606143Q-7.606108,-22.606143,-7.624793,-22.623583Q-7.642232,-22.642273,-7.642232,-22.669673L-7.642232,-22.976105Q-7.642232,-23.077004,-7.697041,-23.128076Q-7.750605,-23.180396,-7.840292,-23.180396Q-7.892610,-23.180396,-7.936208,-23.159216Q-7.978560,-23.138036,-8.003474,-23.101916Q-8.027142,-23.065796,-8.027142,-23.020946L-8.027142,-22.669670Q-8.027142,-22.642270,-8.044582,-22.623580Q-8.062021,-22.606140,-8.090671,-22.606140Q-8.118076,-22.606140,-8.136760,-22.623580Q-8.154199,-22.642270,-8.154199,-22.669670L-8.154199,-23.225234Q-8.154199,-23.253884,-8.136760,-23.271324Q-8.118075,-23.288764,-8.090671,-23.288764Q-8.062021,-23.288764,-8.044582,-23.271324Q-8.027142,-23.253884,-8.027142,-23.225234L-8.027142,-23.211534Q-7.987281,-23.251394,-7.932472,-23.272574Q-7.877663,-23.294994,-7.815380,-23.294994Z" fill="rgb(34,34,34)" stroke="none" stroke-width="0.031141"/></g><g id="ehmus4rf1mi9" transform="matrix(1 0 0 1 -0.03225837113185 0.00000110961592)"><path id="ehmus4rf1mi10" d="M-6.766919,-22.051050L-6.604958,-22.213010C-6.579912,-22.238050,-6.579905,-22.278380,-6.604958,-22.303430C-6.629999,-22.328480,-6.670331,-22.328480,-6.695380,-22.303430L-6.857341,-22.141469Z" transform="matrix(0 1 -1 0 -28.22935962901312 -16.01492582817494)" paint-order="stroke fill markers" fill="rgb(34,34,34)" stroke="none" stroke-width="0.766611" stroke-linecap="round"/><path id="ehmus4rf1mi11" d="M-6.766919,-22.051050L-6.604958,-22.213010C-6.579912,-22.238050,-6.579905,-22.278380,-6.604958,-22.303430C-6.629999,-22.328480,-6.670331,-22.328480,-6.695380,-22.303430L-6.857341,-22.141469Z" transform="matrix(1 0 0 1 0.67903087052836 -0.96364908129938)" paint-order="stroke fill markers" fill="rgb(34,34,34)" stroke="none" stroke-width="0.766611" stroke-linecap="round"/></g><path id="ehmus4rf1mi12" d="M-8.626749,-23.300682Q-8.528065,-23.300682,-8.450616,-23.255712Q-8.371918,-23.211992,-8.328197,-23.133293Q-8.283227,-23.054593,-8.283227,-22.953413Q-8.283227,-22.853483,-8.326948,-22.774782Q-8.370669,-22.696082,-8.449367,-22.651114Q-8.526816,-22.607394,-8.626749,-22.607394Q-8.726682,-22.607394,-8.805380,-22.651114Q-8.884078,-22.696084,-8.927799,-22.774782Q-8.971520,-22.853482,-8.971520,-22.953413Q-8.971520,-23.054596,-8.927799,-23.133293Q-8.884078,-23.211993,-8.805380,-23.255712Q-8.726682,-23.300682,-8.626749,-23.300682ZM-8.626749,-23.188257Q-8.690457,-23.188257,-8.741672,-23.158277Q-8.791639,-23.128297,-8.820370,-23.074587Q-8.849101,-23.020877,-8.849101,-22.953418Q-8.849101,-22.885958,-8.820370,-22.832249Q-8.791639,-22.779779,-8.741672,-22.749799Q-8.690456,-22.719819,-8.626749,-22.719819Q-8.563041,-22.719819,-8.513075,-22.749799Q-8.461858,-22.779779,-8.434377,-22.832249Q-8.405646,-22.885959,-8.405646,-22.953418Q-8.405646,-23.020868,-8.434377,-23.074587Q-8.461858,-23.128307,-8.513075,-23.158277Q-8.563042,-23.188257,-8.626749,-23.188257Z" fill="rgb(34,34,34)" stroke="none" stroke-width="0.031229"/><path id="ehmus4rf1mi13" d="M-9.154262,-22.737307Q-9.131777,-22.737307,-9.116787,-22.719817Q-9.100548,-22.702327,-9.100548,-22.674847Q-9.100548,-22.647367,-9.121784,-22.629877Q-9.141771,-22.612387,-9.174249,-22.612387L-9.196734,-22.612387Q-9.257943,-22.612387,-9.309159,-22.643617Q-9.359126,-22.676097,-9.387857,-22.731057Q-9.416588,-22.786017,-9.416588,-22.854725L-9.416588,-23.163269L-9.474050,-23.163269Q-9.500282,-23.163269,-9.516522,-23.178259Q-9.532761,-23.193249,-9.532761,-23.215739Q-9.532761,-23.240719,-9.516522,-23.255709Q-9.500283,-23.270699,-9.474050,-23.270699L-9.416588,-23.270699L-9.416588,-23.450579Q-9.416588,-23.478059,-9.399100,-23.495549Q-9.381612,-23.513039,-9.354130,-23.513039Q-9.326648,-23.513039,-9.309160,-23.495549Q-9.291672,-23.478059,-9.291672,-23.450579L-9.291672,-23.270699L-9.185493,-23.270699Q-9.159260,-23.270699,-9.143021,-23.255709Q-9.126782,-23.240719,-9.126782,-23.215739Q-9.126782,-23.193249,-9.143021,-23.178259Q-9.159260,-23.163269,-9.185493,-23.163269L-9.291672,-23.163269L-9.291672,-22.854725Q-9.291672,-22.804755,-9.264190,-22.771035Q-9.236708,-22.737305,-9.196735,-22.737305Z" fill="rgb(34,34,34)" stroke="none" stroke-width="0.031229"/><path id="ehmus4rf1mi14" d="M-9.939104,-23.300682Q-9.857908,-23.300682,-9.794200,-23.274452Q-9.729243,-23.248222,-9.691768,-23.202002Q-9.675529,-23.182012,-9.675529,-23.162032Q-9.675529,-23.140792,-9.696765,-23.123312Q-9.710506,-23.113312,-9.731742,-23.113312Q-9.764220,-23.113312,-9.790453,-23.137042Q-9.821682,-23.165772,-9.856659,-23.177012Q-9.891636,-23.189502,-9.941603,-23.189502Q-9.999065,-23.189502,-10.036540,-23.169512Q-10.072770,-23.150772,-10.072770,-23.115802Q-10.072770,-23.090822,-10.060280,-23.073332Q-10.047790,-23.057092,-10.012810,-23.042102Q-9.977833,-23.028362,-9.911628,-23.014622Q-9.775468,-22.987142,-9.719256,-22.938422Q-9.661794,-22.889702,-9.661794,-22.812256Q-9.661794,-22.754796,-9.693023,-22.707325Q-9.724252,-22.661105,-9.785461,-22.633625Q-9.845421,-22.607395,-9.930365,-22.607395Q-10.015308,-22.607395,-10.090258,-22.633625Q-10.165208,-22.659855,-10.207680,-22.702335Q-10.223920,-22.718575,-10.223920,-22.741055Q-10.223920,-22.771035,-10.198940,-22.789775Q-10.175200,-22.807265,-10.155220,-22.807265Q-10.130240,-22.807265,-10.107750,-22.784785Q-10.084020,-22.758555,-10.036550,-22.738565Q-9.989082,-22.719825,-9.935368,-22.719825Q-9.864165,-22.719825,-9.825441,-22.743555Q-9.785468,-22.767285,-9.785468,-22.807265Q-9.785468,-22.845985,-9.824192,-22.870975Q-9.862916,-22.897205,-9.955355,-22.914695Q-10.195194,-22.960915,-10.195194,-23.112064Q-10.195194,-23.173274,-10.158964,-23.215745Q-10.122734,-23.258215,-10.064024,-23.279455Q-10.005314,-23.300685,-9.939108,-23.300685Z" fill="rgb(34,34,34)" stroke="none" stroke-width="0.031229"/><path id="ehmus4rf1mi15" d="M-10.416655,-23.296934Q-10.387925,-23.296934,-10.370435,-23.279444Q-10.352945,-23.261954,-10.352945,-23.233224L-10.352945,-22.676094Q-10.352945,-22.648614,-10.370435,-22.629874Q-10.387925,-22.612384,-10.416655,-22.612384Q-10.444135,-22.612384,-10.462875,-22.629874Q-10.480365,-22.648614,-10.480365,-22.676094L-10.480365,-22.689834Q-10.520335,-22.649864,-10.575305,-22.627374Q-10.630265,-22.606134,-10.692727,-22.606134Q-10.778917,-22.606134,-10.847624,-22.643614Q-10.916324,-22.681094,-10.955053,-22.752291Q-10.993773,-22.824741,-10.993773,-22.925926L-10.993773,-23.233221Q-10.993773,-23.260701,-10.976283,-23.278191Q-10.957543,-23.296931,-10.930063,-23.296931Q-10.902583,-23.296931,-10.885093,-23.278191Q-10.866353,-23.260701,-10.866353,-23.233221L-10.866353,-22.925926Q-10.866353,-22.824743,-10.812643,-22.772278Q-10.757683,-22.721058,-10.667739,-22.721058Q-10.615279,-22.721058,-10.572799,-22.742298Q-10.529079,-22.763538,-10.505349,-22.799758Q-10.480369,-22.835988,-10.480369,-22.880958L-10.480369,-23.233223Q-10.480369,-23.261953,-10.462879,-23.279443Q-10.444139,-23.296933,-10.416659,-23.296933Z" fill="rgb(34,34,34)" stroke="none" stroke-width="0.031229"/><path id="ehmus4rf1mi16" d="M-11.380128,-23.300682Q-11.232726,-23.300682,-11.135291,-23.188257Q-11.122801,-23.174517,-11.122801,-23.155777Q-11.122801,-23.128297,-11.150281,-23.109557Q-11.162771,-23.100857,-11.179011,-23.100857Q-11.207741,-23.100857,-11.227731,-23.123337Q-11.258961,-23.157067,-11.296431,-23.172057Q-11.332661,-23.188297,-11.380121,-23.188297Q-11.476311,-23.188297,-11.536267,-23.123337Q-11.596227,-23.059627,-11.596227,-22.953450Q-11.596227,-22.886000,-11.568747,-22.832281Q-11.540017,-22.779821,-11.490047,-22.749841Q-11.438827,-22.719861,-11.373874,-22.719861Q-11.288934,-22.719861,-11.236466,-22.763581Q-11.212736,-22.781071,-11.190246,-22.781071Q-11.172756,-22.781071,-11.157766,-22.769831Q-11.134036,-22.749841,-11.134036,-22.724861Q-11.134036,-22.706121,-11.149026,-22.691131Q-11.238966,-22.607441,-11.373876,-22.607441Q-11.472556,-22.607441,-11.551258,-22.652411Q-11.629958,-22.697381,-11.674926,-22.776078Q-11.718646,-22.856028,-11.718646,-22.953460Q-11.718646,-23.053390,-11.676176,-23.132091Q-11.632456,-23.212041,-11.555007,-23.255759Q-11.477557,-23.300729,-11.380123,-23.300729Z" fill="rgb(34,34,34)" stroke="none" stroke-width="0.031229"/></g></g><g id="ehmus4rf1mi17_to" transform="translate(-3.302036,3.376202)"><polygon id="ehmus4rf1mi17" points="50,23.150000 19,76.850000 81,76.850000 50,23.150000" transform="rotate(90) scale(0.103374,0.068956) translate(-50,-50)" fill="rgb(0,255,102)" stroke="none" stroke-width="1"/></g></svg>